<svg width="640" height="704" viewBox="0 0 640 704" fill="none" xmlns="http://www.w3.org/2000/svg" role="img" aria-label="Крок 1: Створення запиту">
<rect width="640" height="704" rx="32" fill="#241C2D"/>
<rect x="48" y="64" width="544" height="512" rx="24" fill="#2F2538" stroke="#3d2a5a" stroke-width="2"/>
<!-- Header bar with avatar -->
<rect x="64" y="88" width="512" height="48" rx="12" fill="#31283A" stroke="#3d2a5a"/>
<circle cx="100" cy="112" r="20" fill="url(#gradAvatar1)" stroke="#7f51b3" stroke-width="2"/>
<path d="M100 100c5.5 0 10 4.5 10 10s-4.5 10-10 10-10-4.5-10-10 4.5-10 10-10Zm0 24c8.8 0 16 4.7 16 10.5V138H84v-3.5C84 128.7 91.2 124 100 124Z" fill="#fff" fill-opacity="0.15"/>
<rect x="140" y="104" width="140" height="16" rx="8" fill="#3d2a5a"/>
<rect x="288" y="104" width="96" height="16" rx="8" fill="#3d2a5a"/>

<!-- Form fields -->
<rect x="96" y="168" width="448" height="54" rx="12" fill="#7f51b3" fill-opacity="0.18" stroke="#7f51b3" stroke-dasharray="6 10"/>
<rect x="96" y="242" width="192" height="44" rx="10" fill="#c84cd8" fill-opacity="0.25"/>
<rect x="300" y="242" width="244" height="44" rx="10" fill="#3d2a5a"/>
<rect x="96" y="302" width="384" height="26" rx="6" fill="#3d2a5a"/>
<rect x="96" y="338" width="352" height="26" rx="6" fill="#3d2a5a"/>
<rect x="96" y="374" width="280" height="26" rx="6" fill="#3d2a5a"/>
<rect x="96" y="410" width="220" height="26" rx="6" fill="#3d2a5a"/>

<!-- Attachment preview thumbnails -->
<rect x="96" y="450" width="70" height="70" rx="12" fill="#31283A" stroke="#3d2a5a"/>
<rect x="176" y="450" width="70" height="70" rx="12" fill="#31283A" stroke="#3d2a5a"/>
<rect x="256" y="450" width="70" height="70" rx="12" fill="#31283A" stroke="#3d2a5a"/>
<path d="M115 485l16 20 12-14 12 16" stroke="#7f51b3" stroke-width="4" stroke-linecap="round" stroke-linejoin="round"/>

<!-- Submit button -->
<rect x="352" y="456" width="192" height="56" rx="14" fill="url(#gradBtn1)"/>
<text x="448" y="492" font-family="Bahnschrift, Helvetica, Arial" font-size="22" fill="#ffffff" text-anchor="middle">Надіслати</text>

<!-- Progress / confirmation -->
<circle cx="560" cy="520" r="52" fill="#7f51b3"/>
<path d="M536 522.5 555.25 542 586 500" stroke="#fff" stroke-width="10" stroke-linecap="round" stroke-linejoin="round"/>

<text x="64" y="620" font-family="Bahnschrift, Helvetica, Arial" font-size="38" fill="#e4e4e4">1. Створіть запит</text>

<defs>
<linearGradient id="gradAvatar1" x1="80" y1="92" x2="120" y2="132" gradientUnits="userSpaceOnUse">
<stop stop-color="#7f51b3"/>
<stop offset="1" stop-color="#c84cd8"/>
</linearGradient>
<linearGradient id="gradBtn1" x1="352" y1="456" x2="544" y2="512" gradientUnits="userSpaceOnUse">
<stop stop-color="#c84cd8"/>
<stop offset="1" stop-color="#7f51b3"/>
</linearGradient>
</defs>
</svg>
